<?xml version="1.0" encoding="UTF-8"?>
<svg version="1.1" xmlns="http://www.w3.org/2000/svg" width="441" height="114">
<path d="M0 0 C145.53 0 291.06 0 441 0 C441 37.62 441 75.24 441 114 C295.47 114 149.94 114 0 114 C0 76.38 0 38.76 0 0 Z " fill="#FDFDFD" transform="translate(0,0)"/>
<path d="M0 0 C12.21 0 24.42 0 37 0 C37.495 2.475 37.495 2.475 38 5 C41.96 5 45.92 5 50 5 C50 8.3 50 11.6 50 15 C46.04 15 42.08 15 38 15 C37.67 31.17 37.34 47.34 37 64 C24.79 64 12.58 64 0 64 C0 42.88 0 21.76 0 0 Z " fill="#FF332F" transform="translate(95,19)"/>
<path d="M0 0 C5.75275218 2.10196714 9.31237372 5.61404561 12.8125 10.5625 C14.86589599 16.50654102 15.16437533 22.64122501 13.0859375 28.63671875 C10.55454544 33.57701615 7.97736674 36.32893085 3 39 C-0.796875 39.4609375 -0.796875 39.4609375 -4.75 39.375 C-6.06484375 39.36210938 -7.3796875 39.34921875 -8.734375 39.3359375 C-12 39 -12 39 -14 37 C-14.33 41.62 -14.66 46.24 -15 51 C-18.96 51 -22.92 51 -27 51 C-27 34.5 -27 18 -27 1 C-23.37 1 -19.74 1 -16 1 C-15.67 1.99 -15.34 2.98 -15 4 C-14.195625 3.34 -13.39125 2.68 -12.5625 2 C-8.52165454 -0.68434414 -4.70536543 -0.69395677 0 0 Z " fill="#0A0A0A" transform="translate(285,36)"/>
<path d="M0 0 C3.5 1.875 3.5 1.875 6 4 C6 4.66 6 5.32 6 6 C6.556875 5.566875 7.11375 5.13375 7.6875 4.6875 C13.09917026 0.73844333 16.29236423 -0.98965118 23 0 C28.23894712 1.8134817 30.32484941 4.21166377 33 9 C33.45410156 12.34326172 33.45410156 12.34326172 33.390625 15.9296875 C33.37773437 17.21875 33.36484375 18.5078125 33.3515625 19.8359375 C33.31814906 21.18230268 33.28428937 22.52865685 33.25 23.875 C33.22991356 25.24476569 33.21166655 26.61455966 33.1953125 27.984375 C33.1482806 31.32363986 33.08255864 34.66145562 33 38 C29.37 38 25.74 38 22 38 C21.95101562 36.21851563 21.90203125 34.43703125 21.8515625 32.6015625 C21.77654517 30.27602537 21.70099691 27.95050532 21.625 25.625 C21.5940625 24.449375 21.563125 23.27375 21.53125 22.0625 C21.47324219 20.38027344 21.47324219 20.38027344 21.4140625 18.6640625 C21.3826416 17.62717285 21.3512207 16.5902832 21.31884766 15.52197266 C21.24045528 12.83190165 21.24045528 12.83190165 19 11 C15.43407381 11.16417032 15.43407381 11.16417032 12 12 C10.71394339 14.57211322 10.78956059 16.56906966 10.68359375 19.4453125 C10.62075195 21.05986328 10.62075195 21.05986328 10.55664062 22.70703125 C10.51732422 23.83496094 10.47800781 24.96289062 10.4375 26.125 C10.37272461 27.82849609 10.37272461 27.82849609 10.30664062 29.56640625 C10.20034055 32.37745261 10.09964603 35.1887099 10 38 C6.37 38 2.74 38 -1 38 C-1.04898438 36.30230469 -1.09796875 34.60460937 -1.1484375 32.85546875 C-1.22346444 30.63279577 -1.2990123 28.41014034 -1.375 26.1875 C-1.4059375 25.06794922 -1.436875 23.94839844 -1.46875 22.79492188 C-1.50742188 21.72177734 -1.54609375 20.64863281 -1.5859375 19.54296875 C-1.63306885 18.0583313 -1.63306885 18.0583313 -1.68115234 16.54370117 C-1.83773433 13.75924906 -1.83773433 13.75924906 -4 11 C-7 10.5 -7 10.5 -10 11 C-12.25870108 14.38805161 -12.29259413 15.77350741 -12.4140625 19.76171875 C-12.47207031 21.43911133 -12.47207031 21.43911133 -12.53125 23.15039062 C-12.5621875 24.31763672 -12.593125 25.48488281 -12.625 26.6875 C-12.68300781 28.45577148 -12.68300781 28.45577148 -12.7421875 30.25976562 C-12.83654057 33.17291668 -12.91936242 36.08643703 -13 39 C-16.63 39 -20.26 39 -24 39 C-24 26.46 -24 13.92 -24 1 C-20.7 1 -17.4 1 -14 1 C-14 1.99 -14 2.98 -14 4 C-13.175 3.34 -12.35 2.68 -11.5 2 C-7.7443218 -0.48016485 -4.39303831 -0.88906728 0 0 Z " fill="#050505" transform="translate(176,36)"/>
<path d="M0 0 C5.23762218 3.45187498 9.75795406 6.53235185 11.51953125 12.765625 C11.51953125 15.735625 11.51953125 18.705625 11.51953125 21.765625 C2.27953125 21.765625 -6.96046875 21.765625 -16.48046875 21.765625 C-14.71195839 24.94636665 -14.71195839 24.94636665 -12.48046875 27.765625 C-10.41274141 27.96504368 -10.41274141 27.96504368 -8.04296875 27.953125 C-7.23988281 27.96730469 -6.43679687 27.98148438 -5.609375 27.99609375 C-3.26416242 27.96724856 -3.26416242 27.96724856 -1.48046875 25.765625 C1.33984375 25.5703125 1.33984375 25.5703125 4.64453125 25.640625 C5.74023438 25.65867187 6.8359375 25.67671875 7.96484375 25.6953125 C8.80789062 25.71851562 9.6509375 25.74171875 10.51953125 25.765625 C7.94338915 30.26679637 5.7408087 33.97538665 1.33203125 36.828125 C-5.46403829 38.49928964 -12.0696347 38.85790966 -18.48046875 35.765625 C-21.04296875 33.515625 -21.04296875 33.515625 -23.48046875 30.765625 C-24.24359375 29.92 -25.00671875 29.074375 -25.79296875 28.203125 C-28.32734121 23.04051444 -28.43591689 18.40421666 -27.48046875 12.765625 C-24.91708769 6.84000098 -21.16916375 2.73363978 -15.48046875 -0.234375 C-10.22777579 -1.7855776 -5.03144054 -2.50383498 0 0 Z " fill="#060606" transform="translate(241.48046875,37.234375)"/>
<path d="M0 0 C5.49927944 2.74510983 7.97823522 5.56082282 10.49609375 11.12109375 C10.99109375 12.11109375 10.99109375 12.11109375 11.49609375 13.12109375 C11.49609375 16.09109375 11.49609375 19.06109375 11.49609375 22.12109375 C2.25609375 22.12109375 -6.98390625 22.12109375 -16.50390625 22.12109375 C-14.18139199 27.006049 -14.18139199 27.006049 -11.50390625 28.12109375 C-9.58987549 28.31778109 -9.58987549 28.31778109 -7.50390625 28.30859375 C-6.45203125 28.32986328 -6.45203125 28.32986328 -5.37890625 28.3515625 C-3.25865687 28.28621698 -3.25865687 28.28621698 -1.50390625 26.12109375 C1.31640625 25.92578125 1.31640625 25.92578125 4.62109375 25.99609375 C5.71679688 26.01414062 6.8125 26.0321875 7.94140625 26.05078125 C8.78445313 26.07398437 9.6275 26.0971875 10.49609375 26.12109375 C7.91822916 32.09088542 4.51879925 35.63739396 -1.50390625 38.12109375 C-7.93771605 38.81107057 -14.07984322 38.99542449 -19.50390625 35.12109375 C-25.74654322 29.85248524 -25.74654322 29.85248524 -26.50390625 25.12109375 C-27.0135536 18.17224816 -27.16461447 12.18019701 -23.50390625 6.12109375 C-16.85459097 -0.34851031 -8.95130062 -3.1420322 0 0 Z " fill="#050505" transform="translate(329.50390625,36.87890625)"/>
<path d="M0 0 C10.56 0 21.12 0 32 0 C32 3.63 32 7.26 32 11 C28.7 11 25.4 11 22 11 C22 23.54 22 36.08 22 49 C18.04 49 14.08 49 10 49 C10 36.46 10 23.92 10 11 C6.7 11 3.4 11 0 11 C0 7.37 0 3.74 0 0 Z " fill="#000000" transform="translate(98,25)"/>
<path d="M0 0 C12.21 0 24.42 0 37 0 C37.495 2.475 37.495 2.475 38 5 C41.96 5 45.92 5 50 5 C50 8.3 50 11.6 50 15 C46.04 15 42.08 15 38 15 C37.67 31.17 37.34 47.34 37 64 C24.79 64 12.58 64 0 64 C0 42.88 0 21.76 0 0 Z M3 6 C3 9.63 3 13.26 3 17 C5.97 17 8.94 17 12 17 C12 19.97 12 22.94 12 26 C8.7 26 5.4 26 2 26 C1.67 25.34 1.34 24.68 1 24 C1 36.87 1 49.74 1 63 C12.55 63 24.1 63 36 63 C36 50.13 36 37.26 36 24 C35.67 24.66 35.34 25.32 35 26 C32.36 26 29.72 26 27 26 C26.67 23.03 26.34 20.06 26 17 C28.97 17 31.94 17 35 17 C35 13.37 35 9.74 35 6 C24.44 6 13.88 6 3 6 Z " fill="#EF7441" transform="translate(95,19)"/>
<path d="M0 0 C3.96 0 7.92 0 12 0 C12 12.54 12 25.08 12 38 C8.04 38 4.08 38 0 38 C0 25.46 0 12.92 0 0 Z " fill="#191919" transform="translate(133,37)"/>
<path d="M0 0 C11.78026802 1.2771488 11.78026802 1.2771488 15.75 4.125 C18.1129228 7.14429024 18.89812596 9.06304053 18.58203125 12.9296875 C17.47696016 16.86047729 15.29564382 19.62742491 12 22 C7.69893022 22.66740738 4.6867038 22.35949043 1 20 C0.01 22.475 0.01 22.475 -1 25 C-2.65 24.67 -4.3 24.34 -6 24 C-5.43189471 18.20140805 -4.26320265 13.02313406 -2.4375 7.5 C-2.08655273 6.40945312 -2.08655273 6.40945312 -1.72851562 5.296875 C-1.15867219 3.52919739 -0.58024596 1.76429031 0 0 Z " fill="#111111" transform="translate(356,59)"/>
<path d="M0 0 C0.33 0.66 0.66 1.32 1 2 C4.3 2 7.6 2 11 2 C11 11.9 11 21.8 11 32 C15.29 32 19.58 32 24 32 C24 32.33 24 32.66 24 33 C16.41 33 8.82 33 1 33 C0.37402363 27.99218905 -0.1233781 23.68859604 -0.09765625 18.75 C-0.09443359 17.64785156 -0.09121094 16.54570313 -0.08789062 15.41015625 C-0.07951172 14.28480469 -0.07113281 13.15945312 -0.0625 12 C-0.05798828 10.84371094 -0.05347656 9.68742187 -0.04882812 8.49609375 C-0.03712529 5.66400775 -0.02072996 2.83203189 0 0 Z " fill="#FF633F" transform="translate(96,43)"/>
<path d="M0 0 C2.75329021 1.79562405 4.52627461 3.05254922 6 6 C6.34553283 9.01107177 6.57248153 11.09312777 6 14 C3.42117303 17.09459236 1.87441649 18.55423234 -2.00390625 19.4765625 C-5.78133067 19.74893845 -7.87169272 19.08553819 -11 17 C-13.23495494 13.64756759 -13.67920629 11.87083725 -13.43359375 7.93359375 C-12.75194607 4.89381354 -11.19767713 3.13303956 -9 1 C-5.89951072 -0.55024464 -3.42105782 -0.28992015 0 0 Z " fill="#F2F2F2" transform="translate(282,46)"/>
<path d="M0 0 C0.33 0 0.66 0 1 0 C1.02911003 3.89581756 1.04683587 7.791607 1.0625 11.6875 C1.07087891 12.79029297 1.07925781 13.89308594 1.08789062 15.02929688 C1.09111328 16.09599609 1.09433594 17.16269531 1.09765625 18.26171875 C1.10289307 19.24100342 1.10812988 20.22028809 1.11352539 21.22924805 C1.00308543 23.92469572 0.60534166 26.37545639 0 29 C-1.11375 28.979375 -2.2275 28.95875 -3.375 28.9375 C-6.83215921 28.73619282 -6.83215921 28.73619282 -9 30 C-9.02891949 25.70834738 -9.04677118 21.41671964 -9.0625 17.125 C-9.07087891 15.90167969 -9.07925781 14.67835937 -9.08789062 13.41796875 C-9.09111328 12.25136719 -9.09433594 11.08476563 -9.09765625 9.8828125 C-9.10289307 8.80402832 -9.10812988 7.72524414 -9.11352539 6.61376953 C-9 4 -9 4 -8 2 C-5.36 2 -2.72 2 0 2 C0 1.34 0 0.68 0 0 Z " fill="#FF633F" transform="translate(130,43)"/>
<path d="M0 0 C2.97 0.495 2.97 0.495 6 1 C5.855625 1.680625 5.71125 2.36125 5.5625 3.0625 C4.93054091 6.36273082 4.45686059 9.67144426 4 13 C4.680625 12.319375 5.36125 11.63875 6.0625 10.9375 C9 9 9 9 12.8125 9.25 C13.864375 9.4975 14.91625 9.745 16 10 C13.74259377 12.33524782 11.7194239 14.18705073 9 16 C9.60825035 20.34464536 10.26167392 24.67551867 11 29 C9.02 28.67 7.04 28.34 5 28 C4.34 24.7 3.68 21.4 3 18 C2.34 18 1.68 18 1 18 C0.67 20.31 0.34 22.62 0 25 C-1.98 24.67 -3.96 24.34 -6 24 C-5.37713159 21.31199023 -4.75176793 18.6246008 -4.125 15.9375 C-3.95097656 15.18533203 -3.77695312 14.43316406 -3.59765625 13.65820312 C-2.52335236 9.06256983 -1.33465943 4.52702051 0 0 Z " fill="#151515" transform="translate(380,59)"/>
<path d="M0 0 C12.21 0 24.42 0 37 0 C37.495 2.475 37.495 2.475 38 5 C41.96 5 45.92 5 50 5 C50 8.3 50 11.6 50 15 C46.04 15 42.08 15 38 15 C38 15.99 38 16.98 38 18 C37.34 18 36.68 18 36 18 C36 12.39 36 6.78 36 1 C24.45 1 12.9 1 1 1 C1 21.46 1 41.92 1 63 C0.67 63 0.34 63 0 63 C0 42.21 0 21.42 0 0 Z " fill="#EAA58F" transform="translate(95,19)"/>
<path d="M0 0 C0.33 0 0.66 0 1 0 C2.43636458 11.87308358 2.1108955 23.81366189 2.0625 35.75 C2.05747562 37.9114573 2.05291437 40.07291572 2.04882812 42.234375 C2.03875286 47.48963442 2.01916426 52.74473474 2 58 C-10.21 58 -22.42 58 -35 58 C-35 57.67 -35 57.34 -35 57 C-23.12 57 -11.24 57 1 57 C0.67 44.79 0.34 32.58 0 20 C-2.64 20 -5.28 20 -8 20 C-8.33 20.66 -8.66 21.32 -9 22 C-9 18.37 -9 14.74 -9 11 C-6.03 11 -3.06 11 0 11 C0 7.37 0 3.74 0 0 Z " fill="#FA8569" transform="translate(130,25)"/>
<path d="M0 0 C0.33 0.99 0.66 1.98 1 3 C2.093125 2.814375 3.18625 2.62875 4.3125 2.4375 C8 2 8 2 11 3 C11 7.29 11 11.58 11 16 C15.29 16 19.58 16 24 16 C24 16.33 24 16.66 24 17 C16.41 17 8.82 17 1 17 C-0.125 8 -0.125 8 -0.0625 4 C-0.05347656 3.236875 -0.04445313 2.47375 -0.03515625 1.6875 C-0.02355469 1.130625 -0.01195313 0.57375 0 0 Z " fill="#FF4436" transform="translate(96,59)"/>
<path d="M0 0 C0.33 0 0.66 0 1 0 C1 12.54 1 25.08 1 38 C4.96 38 8.92 38 13 38 C13 25.46 13 12.92 13 0 C13.33 0 13.66 0 14 0 C14.33 11.88 14.66 23.76 15 36 C17.475 35.505 17.475 35.505 20 35 C20.66 35 21.32 35 22 35 C22.66 33.68 23.32 32.36 24 31 C24.09765625 37.15234375 24.09765625 37.15234375 24 39 C23 40 23 40 21.171875 40.1328125 C14.02308317 40.10975188 7.18850199 39.55296169 0 39 C0 26.13 0 13.26 0 0 Z " fill="#C6392B" transform="translate(107,36)"/>
<path d="M0 0 C10.89 0 21.78 0 33 0 C33 0.99 33 1.98 33 3 C22.11 3 11.22 3 0 3 C0 2.01 0 1.02 0 0 Z " fill="#FF8D4C" transform="translate(97,21)"/>
<path d="M0 0 C2.9375 1.8125 2.9375 1.8125 5 4 C5 4.99 5 5.98 5 7 C-0.61 7 -6.22 7 -12 7 C-9.26996468 0.17491171 -7.09413829 -0.73387638 0 0 Z " fill="#ECECEC" transform="translate(237,45)"/>
<path d="M0 0 C0.33 0 0.66 0 1 0 C1.07654536 4.51617599 1.10228696 8.59085217 0 13 C-1.11375 12.979375 -2.2275 12.95875 -3.375 12.9375 C-6.83215921 12.73619282 -6.83215921 12.73619282 -9 14 C-9 10.7 -9 7.4 -9 4 C-7.88625 3.71125 -6.7725 3.4225 -5.625 3.125 C-1.99708908 2.30758671 -1.99708908 2.30758671 0 0 Z " fill="#FF4837" transform="translate(130,59)"/>
<path d="M0 0 C2.9375 1.8125 2.9375 1.8125 5 4 C5 4.99 5 5.98 5 7 C-0.28 7 -5.56 7 -11 7 C-9.30334739 0.21338958 -6.99096376 -0.84373701 0 0 Z " fill="#E7E7E7" transform="translate(325,45)"/>
<path d="M0 0 C0.66 0.66 1.32 1.32 2 2 C4.20250992 2.46006346 4.20250992 2.46006346 6.625 2.625 C7.85089844 2.73714844 7.85089844 2.73714844 9.1015625 2.8515625 C9.72804688 2.90054688 10.35453125 2.94953125 11 3 C11 5.64 11 8.28 11 11 C7.7 11 4.4 11 1 11 C-0.28317892 7.15046324 -0.06643637 4.05261865 0 0 Z " fill="#FF563B" transform="translate(96,51)"/>
<path d="M0 0 C3.3 0 6.6 0 10 0 C10 2.64 10 5.28 10 8 C6.7 8 3.4 8 0 8 C0 5.36 0 2.72 0 0 Z " fill="#000000" transform="translate(134,25)"/>
<path d="M0 0 C0.33 0 0.66 0 1 0 C1.25 7.625 1.25 7.625 -1 11 C-2.9453125 11.51171875 -2.9453125 11.51171875 -5.125 11.6875 C-7.043125 11.8421875 -7.043125 11.8421875 -9 12 C-9.09765625 5.84765625 -9.09765625 5.84765625 -9 4 C-8 3 -8 3 -6.15234375 2.90234375 C-4.1015625 2.93489583 -2.05078125 2.96744792 0 3 C0 2.01 0 1.02 0 0 Z " fill="#FF563B" transform="translate(130,51)"/>
<path d="M0 0 C0.928125 0.20625 1.85625 0.4125 2.8125 0.625 C2.9375 3.5 2.9375 3.5 2.8125 6.625 C0.8125 8.625 0.8125 8.625 -1.6875 8.875 C-4.1875 8.625 -4.1875 8.625 -6.1875 6.625 C-6.5 4.125 -6.5 4.125 -6.1875 1.625 C-3.1875 -0.375 -3.1875 -0.375 0 0 Z " fill="#F5F5F5" transform="translate(365.1875,66.375)"/>
<path d="M0 0 C2.97 0.495 2.97 0.495 6 1 C5.67 2.98 5.34 4.96 5 7 C3.02 6.34 1.04 5.68 -1 5 C-0.67 3.35 -0.34 1.7 0 0 Z " fill="#262626" transform="translate(343,69)"/>
<path d="M0 0 C0.66 0 1.32 0 2 0 C1.34 1.32 0.68 2.64 0 4 C4.29 4.33 8.58 4.66 13 5 C13.33 4.34 13.66 3.68 14 3 C14 3.99 14 4.98 14 6 C8.39 6 2.78 6 -3 6 C-1 1 -1 1 0 0 Z " fill="#C5C5C5" transform="translate(228,46)"/>
<path d="M0 0 C0.33 0.66 0.66 1.32 1 2 C1.66 2 2.32 2 3 2 C2.67 4.31 2.34 6.62 2 9 C1.01 8.34 0.02 7.68 -1 7 C-0.67 4.69 -0.34 2.38 0 0 Z " fill="#E1E1E1" transform="translate(374,69)"/>
</svg>
